<?xml version="1.0" encoding="utf-8"?>
<!-- Generator: Adobe Illustrator 23.0.3, SVG Export Plug-In . SVG Version: 6.00 Build 0)  -->
<svg version="1.1" id="Layer_1" xmlns="http://www.w3.org/2000/svg" xmlns:xlink="http://www.w3.org/1999/xlink" x="0px" y="0px"
	 viewBox="0 0 922.1 914" style="enable-background:new 0 0 922.1 914;" xml:space="preserve">
<style type="text/css">
	.st0{fill:none;}
	.st1{fill:none;stroke:#2A2F36;stroke-width:3;stroke-linecap:round;stroke-dasharray:1,16;}
	.st2{fill:#FAF7EB;stroke:#214261;stroke-width:2;stroke-linecap:round;}
	.st3{fill:#FAF7EB;stroke:#2A2F36;stroke-width:2;stroke-linecap:round;}
</style>
<circle class="st0" cx="465.1" cy="457" r="457"/>
<circle class="st1" cx="465.1" cy="457" r="456"/>
<path id="Path_1" class="st2" d="M17.3,350.4c4.2-2.7,6.1-8.2,6.1-8.2s0.3,6,3,10.2s7.8,6.5,7.8,6.5c-3.5,0.6-6.8,1.8-9.9,3.6
	c-2.7,1.9-5,4.3-6.7,7.2c0.1-3.2-0.8-6.4-2.4-9.1c-2.7-4.2-8.3-7.5-8.3-7.5S13.1,353.1,17.3,350.4z"/>
<path class="st2" d="M17.3,350.4c4.2-2.7,6.1-8.2,6.1-8.2s0.3,6,3,10.2s7.8,6.5,7.8,6.5c-3.5,0.6-6.8,1.8-9.9,3.6
	c-2.7,1.9-5,4.3-6.7,7.2c0.1-3.2-0.8-6.4-2.4-9.1c-2.7-4.2-8.3-7.5-8.3-7.5S13.1,353.1,17.3,350.4z"/>
<path id="Path_2" class="st3" d="M895.4,601.7c3.4-1.3,5.7-5.1,5.7-5.1s-0.8,4.6,0.5,8.3c1,2.5,2.5,4.7,4.4,6.4
	c-2.6-0.2-5.1,0.1-7.6,0.8c-2.2,0.9-4.2,2.3-5.9,4.2c0.6-2.4,0.5-5-0.2-7.4c-1.2-3.7-4.7-7.3-4.7-7.3S892,602.9,895.4,601.7z"/>
<path id="Path_2_1_" class="st3" d="M309.8,881.5c3.3-2.1,4.8-6.9,4.8-6.9s0.3,5.5,2.4,9.4c1.6,2.7,3.7,4.9,6.1,6.5
	c-2.8,0.2-5.4,1.1-7.8,2.4c-2.1,1.5-3.9,3.5-5.3,5.9c0-2.9-0.6-5.8-1.9-8.5c-2.1-4-6.6-7.5-6.6-7.5S306.5,883.6,309.8,881.5z"/>
<g>
	<path class="st3" d="M17.3,350.4c4.2-2.7,6.1-8.2,6.1-8.2s0.3,6,3,10.2s7.8,6.5,7.8,6.5c-3.5,0.6-6.8,1.8-9.9,3.6
		c-2.7,1.9-5,4.3-6.7,7.2c0.1-3.2-0.8-6.4-2.4-9.1c-2.7-4.2-8.3-7.5-8.3-7.5S13.1,353.1,17.3,350.4z"/>
</g>
<path id="Path_2_2_" class="st3" d="M660.7,41.1c3.4-1.5,5.7-5.7,5.7-5.7s-0.8,5.2,0.5,9.4c1,2.8,2.5,5.3,4.4,7.2
	c-2.6-0.2-5.1,0.1-7.6,0.9c-2.2,1-4.2,2.6-5.9,4.7c0.6-2.7,0.5-5.6-0.2-8.3c-1.2-4.2-4.7-8.2-4.7-8.2S657.3,42.5,660.7,41.1z"/>
</svg>
