<?xml version="1.0" encoding="utf-8"?>
<!-- Generator: Adobe Illustrator 23.0.3, SVG Export Plug-In . SVG Version: 6.00 Build 0)  -->
<svg version="1.1" id="Layer_1" xmlns="http://www.w3.org/2000/svg" xmlns:xlink="http://www.w3.org/1999/xlink" x="0px" y="0px"
	 viewBox="0 0 914 919.1" style="enable-background:new 0 0 914 919.1;" xml:space="preserve">
<style type="text/css">
	.st0{fill:none;}
	.st1{fill:none;stroke:#FFFFFF;stroke-width:5;stroke-linecap:round;stroke-dasharray:0,31;}
	.st2{fill:#FAF7EB;stroke:#214261;stroke-width:2;stroke-linecap:round;}
	.st3{fill:#FAF7EB;stroke:#2A2F36;stroke-width:2;stroke-linecap:round;}
	.st4{fill:#FFFFFF;stroke:#2A2F36;stroke-linecap:round;}
</style>
<circle class="st0" cx="457" cy="457" r="457"/>
<circle class="st1" cx="457" cy="457" r="456"/>
<path id="Path_1" class="st2" d="M9.2,350.4c4.2-2.7,6.1-8.2,6.1-8.2s0.3,6,3,10.2s7.8,6.5,7.8,6.5c-3.5,0.6-6.8,1.8-9.9,3.6
	c-2.7,1.9-5,4.3-6.7,7.2c0.1-3.2-0.8-6.4-2.4-9.1c-2.7-4.2-8.3-7.5-8.3-7.5S5,353.1,9.2,350.4z"/>
<path class="st2" d="M9.2,350.4c4.2-2.7,6.1-8.2,6.1-8.2s0.3,6,3,10.2s7.8,6.5,7.8,6.5c-3.5,0.6-6.8,1.8-9.9,3.6
	c-2.7,1.9-5,4.3-6.7,7.2c0.1-3.2-0.8-6.4-2.4-9.1c-2.7-4.2-8.3-7.5-8.3-7.5S5,353.1,9.2,350.4z"/>
<path id="Path_2" class="st3" d="M887.3,601.7c3.4-1.3,5.7-5.1,5.7-5.1s-0.8,4.6,0.5,8.3c1,2.5,2.5,4.7,4.4,6.4
	c-2.6-0.2-5.1,0.1-7.6,0.8c-2.2,0.9-4.2,2.3-5.9,4.2c0.6-2.4,0.5-5-0.2-7.4c-1.2-3.7-4.7-7.3-4.7-7.3S883.9,602.9,887.3,601.7z"/>
<path id="Path_2_1_" class="st3" d="M301.7,881.5c3.3-2.1,4.8-6.9,4.8-6.9s0.3,5.5,2.4,9.4c1.6,2.7,3.7,4.9,6.1,6.5
	c-2.8,0.2-5.4,1.1-7.8,2.4c-2.1,1.5-3.9,3.5-5.3,5.9c0-2.9-0.6-5.8-1.9-8.5c-2.1-4-6.6-7.5-6.6-7.5S298.4,883.6,301.7,881.5z"/>
<g>
	<path class="st3" d="M9.2,350.4c4.2-2.7,6.1-8.2,6.1-8.2s0.3,6,3,10.2s7.8,6.5,7.8,6.5c-3.5,0.6-6.8,1.8-9.9,3.6
		c-2.7,1.9-5,4.3-6.7,7.2c0.1-3.2-0.8-6.4-2.4-9.1c-2.7-4.2-8.3-7.5-8.3-7.5S5,353.1,9.2,350.4z"/>
</g>
<g>
	<path class="st4" d="M654.7,43c1.6-0.7,3-2.6,3-2.6s-0.8,2.4-0.4,4.2c0.2,1.8,1.4,3.2,1.4,3.2c-1.1,0-2.3,0.1-3.5,0.6
		c-1.2,0.5-2.2,1.2-3.1,2.3c0.5-1.2,0.7-2.5,0.5-3.7c-0.2-1.8-1.5-3.6-1.5-3.6S653.2,43.7,654.7,43z"/>
</g>
</svg>
