<svg id="Original_Color" data-name="Original Color" xmlns="http://www.w3.org/2000/svg" width="268.73" height="268.73" viewBox="0 0 268.73 268.73"><defs><style>.cls-1{fill:#2a2f36;}.cls-2{fill:#927a47;}.cls-3,.cls-4,.cls-5{fill:none;}.cls-3,.cls-5{stroke:#fff;stroke-width:7px;stroke-dasharray:0 18;}.cls-3,.cls-4{stroke-miterlimit:10;}.cls-4{stroke:#927a47;stroke-width:4px;stroke-dasharray:0 14;}.cls-4,.cls-5{stroke-linecap:round;}.cls-5{stroke-linejoin:round;}.cls-6{fill:#ebdca4;}</style></defs><title>logo</title><g id="circles"><circle class="cls-1" cx="134.36" cy="134.36" r="134.36"/><path class="cls-2" d="M134.36,11.31a123.76,123.76,0,0,1,87.52,211.28,123.76,123.76,0,1,1-175-175,122.91,122.91,0,0,1,87.51-36.25m0-4.5a128.27,128.27,0,1,0,90.7,37.57,127.83,127.83,0,0,0-90.7-37.57Z" transform="translate(0 -0.71)"/><path class="cls-2" d="M134.36,32.51A102.57,102.57,0,0,1,206.89,207.6a102.57,102.57,0,1,1-145-145,101.86,101.86,0,0,1,72.52-30m0-4.5a107.06,107.06,0,1,0,75.71,31.35A106.76,106.76,0,0,0,134.36,28Z" transform="translate(0 -0.71)"/><path class="cls-3" d="M-294.08-52.29" transform="translate(0 -0.71)"/></g><g id="dotted_circle" data-name="dotted circle"><circle class="cls-4" cx="134.87" cy="133.86" r="115.89"/></g><g id="dots"><path class="cls-5" d="M62.06,90,90.17,61.68" transform="translate(0 -0.71)"/><path class="cls-5" d="M174.16,202.06l28.11-28.28" transform="translate(0 -0.71)"/></g><g id="T"><rect class="cls-6" x="49.74" y="134.75" width="120.07" height="13.16" transform="translate(-67.78 118.31) rotate(-45)"/><rect class="cls-6" x="126.95" y="81.08" width="110.45" height="12.66" transform="translate(115.17 -103.93) rotate(45)"/><rect class="cls-6" x="117.88" y="77.06" width="48.95" height="12.76" transform="translate(100.7 -76.93) rotate(45)"/><rect class="cls-6" x="161.52" y="120.71" width="48.95" height="12.76" transform="translate(144.34 -95.01) rotate(45)"/><rect class="cls-6" x="68.07" y="153.08" width="120.07" height="13.16" transform="translate(-75.37 136.64) rotate(-45)"/></g></svg>