<?xml version="1.0" encoding="utf-8"?>
<!-- Generator: Adobe Illustrator 23.0.6, SVG Export Plug-In . SVG Version: 6.00 Build 0)  -->
<svg version="1.1" xmlns="http://www.w3.org/2000/svg" xmlns:xlink="http://www.w3.org/1999/xlink" x="0px" y="0px"
	 viewBox="0 0 100.1 100" style="enable-background:new 0 0 100.1 100;" xml:space="preserve">
<style type="text/css">
	.st0{fill-rule:evenodd;clip-rule:evenodd;fill:#9CBABD;}
	.st1{fill:#202429;}
	.st2{fill:none;stroke:#FED136;stroke-width:1.7;stroke-miterlimit:10;}
	.st3{fill:#FED136;}
	.st4{fill:none;stroke:#FFFDFD;stroke-width:2.7;stroke-linecap:round;stroke-linejoin:round;}
	.st5{fill:none;stroke:#FFFDFD;stroke-width:2.7;stroke-linecap:round;stroke-linejoin:round;stroke-dasharray:0,6.6823;}
	.st6{fill:none;stroke:#FFFFFF;stroke-width:1.4;stroke-linecap:round;stroke-miterlimit:10;stroke-dasharray:0,7.6;}
	.st7{fill-rule:evenodd;clip-rule:evenodd;fill:#6B7D80;}
	.st8{fill:#FFFFFF;}
</style>
<g id="ribbon-behind">
	<path class="st0" d="M88.8,71.1c4.7-1,8.5,0.2,10.7,1l-5.7-8.3l5.7-6.8c-5.2-1.9-14.1,3.6-18.6,8.2c0,0,1.4,0.1,3.8-0.2
		s4.1-0.5,4.1-0.5L88.8,71.1L88.8,71.1z"/>
</g>
<g id="background">
	<circle id="background_1_" class="st1" cx="50" cy="50" r="40.7"/>
</g>
<g id="circle-inner">
	<circle id="cirle-inner_3_" class="st2" cx="50" cy="50" r="31"/>
</g>
<g id="circle-outer_1_">
	<circle id="cirle-inner_2_" class="st2" cx="50" cy="50" r="38.3"/>
</g>
<g id="T">
	<g>
		
			<rect x="61.3" y="20.1" transform="matrix(0.7071 -0.7071 0.7071 0.7071 -7.496 55.4755)" class="st3" width="3.8" height="33.4"/>
		
			<rect x="23.2" y="51.2" transform="matrix(0.7071 -0.7071 0.7071 0.7071 -25.4592 44.8624)" class="st3" width="36.4" height="4"/>
		
			<rect x="49.7" y="27.9" transform="matrix(0.7071 -0.7071 0.7071 0.7071 -9.8671 46.8286)" class="st3" width="3.9" height="14.8"/>
		
			<rect x="62.8" y="41.1" transform="matrix(0.7071 -0.7071 0.7071 0.7071 -15.3212 59.9961)" class="st3" width="3.9" height="14.8"/>
		
			<rect x="28.7" y="56.7" transform="matrix(0.7071 -0.7071 0.7071 0.7071 -27.7368 50.3611)" class="st3" width="36.4" height="4"/>
	</g>
</g>
<g id="three_x5F_dots_x5F_2">
	<g id="three-dots2_1_">
		<g>
			<line class="st4" x1="29.8" y1="37.8" x2="29.8" y2="37.8"/>
			<line class="st5" x1="33.6" y1="33.9" x2="35.6" y2="32"/>
			<line class="st4" x1="37.5" y1="30" x2="37.5" y2="30"/>
		</g>
	</g>
</g>
<g id="three_x5F_dots_x5F_1">
	<g id="three-dots1_2_">
		<g>
			<line class="st4" x1="62" y1="70" x2="62" y2="70"/>
			<line class="st5" x1="65.8" y1="66.2" x2="67.8" y2="64.3"/>
			<line class="st4" x1="69.8" y1="62.3" x2="69.8" y2="62.3"/>
		</g>
	</g>
</g>
<g id="spinning-dots">
	<g id="spining-dots_1_">
		<circle class="st6" cx="50.1" cy="50" r="34.5">
		
			<animateTransform  accumulate="none" additive="replace" attributeName="transform" attributeType="XML" calcMode="linear" dur="50s" fill="remove" from="0 50 50" repeatCount="indefinite" restart="always" to="-360 50 50" type="rotate">
			</animateTransform>
		</circle>
	</g>
</g>
<g id="ribbon-top">
</g>
<g id="Name_on_ribbon">
	<g>
		<path class="st0" d="M11.2,79.8v-7.4c-3.8,0.8-8.1,0.3-11.1-0.8l5.7,8.3l-5.7,6.8c5.5,2.1,14.2,2,18.4-3.5L11.2,79.8L11.2,79.8z"
			/>
		<path class="st7" d="M18.2,82.6v-5.8c-2.1,0.8-4.2,1.9-6,3L18.2,82.6L18.2,82.6z"/>
		<path class="st0" d="M88.3,80.2c-29.2,4.4-51.6-15.5-76.5-0.6l0,0V64.3c24.8-15,47.4,4.9,76.5,0.5V80.2L88.3,80.2z"/>
	</g>
	<g id="trace">
		<g>
			<g>
				<path class="st8" d="M27.4,62.1c0.7-0.1,1-0.1,1.7-0.2c1.9-0.2,3.1,1.3,3.1,4.7c0,3.3-1.2,4.9-3,5c-0.7,0.1-1.1,0.1-1.8,0.2
					C27.4,67.9,27.4,66,27.4,62.1z M29,69.9c1-0.1,1.7-0.9,1.7-3.2s-0.7-3-1.7-2.9c-0.1,0-0.2,0-0.3,0c0,2.5,0,3.7,0,6.2
					C28.9,69.9,28.9,69.9,29,69.9z"/>
				<path class="st8" d="M33.4,61.8c0.6,0,0.8,0,1.4,0c0,3.9,0,5.8,0,9.7c-0.6,0-0.8,0-1.4,0C33.4,67.6,33.4,65.6,33.4,61.8z"/>
				<path class="st8" d="M36.2,61.9c0.6,0,0.9,0.1,1.4,0.1c0.6,2,1,3,1.6,5c0.2,0.9,0.4,1.3,0.6,2.2l0,0c-0.1-1-0.2-2.4-0.2-3.5
					c0-1.4,0-2.1,0-3.4c0.5,0.1,0.8,0.1,1.3,0.2c0,3.9,0,5.8,0,9.7c-0.6-0.1-0.9-0.1-1.4-0.2c-0.6-2-1-3-1.6-5
					c-0.2-0.9-0.4-1.3-0.6-2.2l0,0c0.1,1.1,0.2,2.4,0.2,3.5c0,1.4,0,2.1,0,3.4c-0.5,0-0.8-0.1-1.3-0.1
					C36.2,67.7,36.2,65.8,36.2,61.9z"/>
				<path class="st8" d="M42.4,62.6c0.6,0.1,0.8,0.1,1.4,0.2c0,1.5,0,2.2,0,3.7c0.9,0.1,1.3,0.2,2.2,0.4c0-1.5,0-2.2,0-3.7
					c0.6,0.1,0.8,0.2,1.4,0.3c0,3.9,0,5.8,0,9.7c-0.6-0.1-0.8-0.2-1.4-0.3c0-1.6,0-2.4,0-4c-0.9-0.2-1.3-0.2-2.2-0.4
					c0,1.6,0,2.4,0,4c-0.6-0.1-0.8-0.1-1.4-0.2C42.4,68.4,42.4,66.5,42.4,62.6z"/>
				<path class="st8" d="M52.1,66.3c-0.7-0.2-1-0.2-1.7-0.4c0-0.7,0-1.1,0-1.8c2,0.4,2.9,0.6,4.9,1.1c0,0.7,0,1.1,0,1.8
					c-0.7-0.2-1.1-0.2-1.8-0.4c0,3.1,0,4.7,0,7.8c-0.6-0.1-0.9-0.2-1.4-0.3C52.1,71,52.1,69.4,52.1,66.3z"/>
				<path class="st8" d="M56.2,65.4c0.9,0.2,1.4,0.3,2.3,0.5c1.4,0.3,2.5,1.2,2.5,3.5c0,2.2-1.1,3-2.5,2.7C58.2,72,58,72,57.6,71.9
					c0,1.4,0,2.1,0,3.5c-0.6-0.1-0.9-0.2-1.5-0.3C56.2,71.2,56.2,69.2,56.2,65.4z M58.4,70.3c0.8,0.2,1.2-0.2,1.2-1.2
					c0-1-0.4-1.4-1.2-1.5c-0.3-0.1-0.4-0.1-0.7-0.2c0,1.1,0,1.6,0,2.7C58,70.2,58.1,70.2,58.4,70.3z M58.3,71.4
					c0.4-0.5,0.6-0.7,1-1.2c0.8,2.4,1.2,3.5,2.1,5.9c-0.7-0.1-1-0.2-1.6-0.3C59.2,74.1,58.9,73.2,58.3,71.4z"/>
				<path class="st8" d="M63.4,66.9c0.7,0.1,1.1,0.2,1.8,0.3c0.8,4,1.2,6,2.1,9.9c-0.6-0.1-1-0.2-1.6-0.3c-0.3-2-0.5-3-0.9-5.1
					c-0.2-1-0.4-2.2-0.5-3.2l0,0c-0.2,1-0.3,2.1-0.5,3c-0.3,1.9-0.5,2.8-0.9,4.7c-0.6-0.1-0.9-0.2-1.5-0.3
					C62.1,72.5,62.6,70.6,63.4,66.9z M62.7,72.4c1.3,0.2,1.9,0.4,3.2,0.6c0,0.7,0,1,0,1.7c-1.3-0.2-1.9-0.3-3.2-0.6
					C62.7,73.4,62.7,73.1,62.7,72.4z"/>
				<path class="st8" d="M67.9,67.7c0.6,0.1,0.9,0.1,1.6,0.2c0.7,2,1.1,3,1.8,5c0.3,0.9,0.4,1.3,0.7,2.2l0,0c-0.1-1-0.2-2.4-0.2-3.5
					c0-1.4,0-2.1,0-3.4c0.6,0.1,0.9,0.1,1.5,0.2c0,3.9,0,5.8,0,9.7c-0.6-0.1-1-0.1-1.6-0.2c-0.7-2-1.1-3-1.8-5
					c-0.3-0.9-0.4-1.3-0.7-2.2l0,0c0.1,1.1,0.2,2.4,0.2,3.5c0,1.4,0,2.1,0,3.4c-0.6-0.1-0.9-0.1-1.4-0.2
					C67.9,73.5,67.9,71.5,67.9,67.7z"/>
			</g>
		</g>
	</g>
</g>
</svg>
