<svg id="New_Color" data-name="New Color" xmlns="http://www.w3.org/2000/svg" viewBox="0 0 268.73 268.73"><defs><style>.cls-1{fill:#2d314c;}.cls-2{fill:#927a47;}.cls-3,.cls-4{fill:none;stroke:#fff;stroke-width:7px;stroke-dasharray:0 18;}.cls-3{stroke-miterlimit:10;}.cls-4{stroke-linecap:round;stroke-linejoin:round;}.cls-5{fill:#ebdca4;}</style></defs><title>logo-bright</title><g id="Blue_background" data-name="Blue background"><circle class="cls-1" cx="134.36" cy="134.36" r="134.36"/></g><g id="circles_copy" data-name="circles copy"><path class="cls-2" d="M134.36,10.6a123.76,123.76,0,0,1,87.52,211.28,123.76,123.76,0,1,1-175-175A122.91,122.91,0,0,1,134.36,10.6m0-4.5a128.27,128.27,0,1,0,90.7,37.57A127.83,127.83,0,0,0,134.36,6.1Z" transform="translate(0 0)"/><path class="cls-2" d="M134.36,31.79a102.58,102.58,0,0,1,72.53,175.1,102.57,102.57,0,1,1-145-145,101.87,101.87,0,0,1,72.52-30.05m0-4.5a107.07,107.07,0,1,0,75.71,31.36,106.77,106.77,0,0,0-75.71-31.36Z" transform="translate(0 0)"/><path class="cls-3" d="M-294.08-52.29" transform="translate(0 0)"/></g><g id="dots_copy" data-name="dots copy"><path class="cls-4" d="M61.55,89.75,89.66,61.47" transform="translate(0 0)"/><path class="cls-4" d="M173.65,201.85l28.11-28.28" transform="translate(0 0)"/></g><g id="T_copy" data-name="T copy"><rect class="cls-5" x="124.86" y="86.63" width="102.97" height="11.8" transform="translate(117.08 -97.59) rotate(45)"/><rect class="cls-5" x="116.4" y="82.88" width="45.64" height="11.89" transform="translate(103.58 -72.42) rotate(45)"/><rect class="cls-5" x="157.08" y="123.57" width="45.64" height="11.89" transform="translate(144.27 -89.28) rotate(45)"/><rect class="cls-5" x="52.88" y="136.66" width="111.94" height="12.27" transform="translate(-69.09 118.79) rotate(-45)"/><rect class="cls-5" x="69.97" y="153.75" width="111.94" height="12.27" transform="translate(-76.17 135.88) rotate(-45)"/></g></svg>