<?xml version="1.0" encoding="utf-8"?>
<!-- Generator: Adobe Illustrator 23.0.3, SVG Export Plug-In . SVG Version: 6.00 Build 0)  -->
<svg version="1.1" id="Layer_1" xmlns="http://www.w3.org/2000/svg" xmlns:xlink="http://www.w3.org/1999/xlink" x="0px" y="0px"
	 viewBox="0 0 24 24" style="enable-background:new 0 0 24 24;" xml:space="preserve">
<style type="text/css">
	.st0{fill:none;}
	.st1{fill:#2A2F36;}
</style>
<path class="st0" d="M8.3,8c3-3,3.7-8,3.7-8s1.3,5,4.3,8c2.2,2,4.8,3.3,7.7,4c-2.8,1.1-5.4,2.7-7.7,4.8c-1.9,2.1-3.4,4.5-4.3,7.2
	c-0.5-2.7-1.8-5.2-3.7-7.2C5.3,13.8,0,12,0,12S5.3,11,8.3,8z"/>
<path class="st1" d="M12.3,5.8C11.6,7,10.8,8.3,9.7,9.4c-1.2,1.2-2.8,2.2-4.3,2.9c1.5,0.8,3,1.9,4.3,3.1c1.1,1.1,1.9,2.3,2.5,3.4
	c0.7-1.1,1.6-2.4,2.7-3.4c1.2-1.2,2.7-2.3,4.1-3.1c-1.4-0.7-2.8-1.6-4.1-2.9C13.8,8.3,13,7,12.3,5.8 M12,0c0,0,1.3,5,4.3,8
	s7.7,4,7.7,4s-4.7,1.8-7.7,4.8S12,24,12,24s-0.7-4.2-3.7-7.2S0,12,0,12s5.3-1,8.3-4S12,0,12,0z"/>
<rect x="7.9" y="10.9" class="st1" width="6.8" height="2.9"/>
</svg>
