<?xml version="1.0" encoding="utf-8"?>
<!-- Generator: Adobe Illustrator 23.0.3, SVG Export Plug-In . SVG Version: 6.00 Build 0)  -->
<svg version="1.1" id="Layer_1" xmlns="http://www.w3.org/2000/svg" xmlns:xlink="http://www.w3.org/1999/xlink" x="0px" y="0px"
	 viewBox="0 0 480 439" style="enable-background:new 0 0 480 439;" xml:space="preserve">
<style type="text/css">
	.st0{fill:#2B3037;}
	.st1{fill:#2C3036;}
	.st2{fill:#2D3239;}
	.st3{fill:#2A2F36;}
	.st4{fill:#E9EAEB;}
	.st5{fill:#A98A4B;}
	.st6{fill:#E3E4E5;}
	.st7{fill:#2D333D;}
	.st8{fill:#313948;}
	.st9{fill:#2F3643;}
	.st10{fill:#3B414D;}
	.st11{fill:#323A4A;}
	.st12{fill:#2F3642;}
</style>
<path class="st0" d="M45.75,339.94c4.89,5.55,11.12,4.98,17.28,4.98c115.15-0.03,230.3-0.03,345.45,0.02
	c6.03,0,11.97,0.11,17.4-4.93c0,14.53,0.2,28.12-0.1,41.71c-0.12,5.26-5.24,9.51-10.82,10.03c-1.16,0.11-2.33,0.04-3.5,0.04
	c-117.15,0-234.3,0.03-351.45-0.14c-3.71-0.01-7.94-1.36-10.96-3.47c-2.18-1.53-3.75-5.33-3.84-8.17
	c-0.4-12.65-0.17-25.32-0.15-37.99C45.08,341.59,45.35,341.16,45.75,339.94z M386.89,368.27c-2.56-2.59-4.73-4.79-7.16-7.25
	c-2.45,2.58-4.66,4.91-7.15,7.53c2.65,2.43,4.91,4.51,7.17,6.59C382.22,372.76,384.34,370.72,386.89,368.27z M352.89,367.72
	c2.49,2.83,4.5,5.12,6.7,7.61c2.61-2.62,4.77-4.79,6.96-6.99c-2.31-2.55-4.45-4.91-5.98-6.6
	C357.6,364.05,355.15,365.96,352.89,367.72z M219.48,358.28c-0.73-0.05-1.46-0.09-2.18-0.14c0.31,4.76-0.03,9.69,1.13,14.24
	c1.17,4.61,8.93,5.25,11.36,1.03c2.8-4.85,1.11-10.13,0.37-15.24c-0.99,3.52-0.98,7.06-1,10.61c-0.01,3.06-0.67,5.82-4.35,6.11
	c-4.06,0.32-5.05-2.7-5.27-5.82C219.28,365.49,219.48,361.88,219.48,358.28z M71.05,375.6c2.65-2.66,4.81-4.84,7-7.04
	c-2.44-2.47-4.6-4.66-6.64-6.71c-2.43,2.11-4.87,4.24-7.47,6.5C66.36,370.8,68.42,372.91,71.05,375.6z M393.39,368.18
	c2.26,2.31,4.41,4.5,6.73,6.87c2.32-2.32,4.5-4.51,6.54-6.55c-2.28-2.39-4.39-4.61-6.68-7.01
	C397.73,363.78,395.55,365.99,393.39,368.18z M117.74,369.08c-2.32-2.97-4.2-5.37-6.37-8.14c-2.6,2.69-4.72,4.9-6.27,6.5
	c2.08,2.82,3.97,5.39,5.97,8.1C113.89,372.83,115.99,370.78,117.74,369.08z M91.26,360.73c-2.58,2.68-4.79,4.98-6.96,7.23
	c2.42,2.84,4.43,5.18,6.7,7.85c2.88-3.01,5.08-5.31,7.52-7.86C96.11,365.55,94.14,363.6,91.26,360.73z M199.3,371.18
	c3.2,0,6.18,0,8.98,0c1.12,1.82,2.12,3.46,3.13,5.09c0.41-0.24,0.83-0.49,1.24-0.73c-2.62-5.98-5.25-11.96-7.87-17.94
	c-0.51,0.04-1.01,0.07-1.52,0.11c-2.7,5.96-5.39,11.93-8.09,17.89c0.44,0.23,0.89,0.46,1.33,0.69
	C197.36,374.7,198.24,373.11,199.3,371.18z M285.89,370.86c-0.57,1.37-1.21,2.9-1.85,4.43c1.89-1.14,3.76-2.95,3.5-4.39
	c-0.3-1.68-2.26-3.28-3.84-4.48c-1.84-1.4-4.04-2.32-6.08-3.45c0.13-0.56,0.26-1.13,0.38-1.69c1.35-0.74,2.65-1.93,4.06-2.08
	c1.45-0.15,3.01,0.72,4.52,1.14c-3.75-3.23-8.16-3.11-9.52,0.16C273.77,368.51,282.47,366.86,285.89,370.86z M240.69,367.75
	c2.43-0.52,4.49-0.96,7.01-1.5c-2.74-0.24-4.93-0.43-6.98-0.61c0-2.37,0-4.29,0-6.32c2-0.2,3.73-0.38,5.46-0.56
	c-0.03-0.2-0.07-0.41-0.1-0.61c-2.43,0-4.85,0-7.1,0c0,6.06,0,11.89,0,17.71c0.38,0.01,0.76,0.02,1.14,0.02
	C240.32,373.05,240.52,370.2,240.69,367.75z M266.61,374.7c3.49-2.25,4.99-11.37,1.78-16.83
	C267.77,363.74,267.18,369.35,266.61,374.7z M186.24,375.84c0.53-0.01,1.06-0.01,1.58-0.02c0-5.51,0-11.02,0-16.47
	c2.29-0.26,3.95-0.45,5.62-0.64c-0.02-0.14-0.04-0.27-0.06-0.41c-4.21,0-8.42,0-12.63,0c-0.01,0.18-0.01,0.35-0.02,0.53
	c1.71,0.18,3.42,0.36,5.51,0.58C186.24,365.11,186.24,370.48,186.24,375.84z M257.36,358.09c-3.07,9.38-1.64,15.56,1.93,16.66
	C258.69,369.55,258.02,363.82,257.36,358.09z"/>
<path class="st1" d="M385.02,341.54c-13.37,0-25.31,0-37.97,0c41.08-44.01,56.78-94.97,41.86-153.02
	c-14.96-58.25-53.69-95.03-110.3-113.74c1.42-4.46,3.19-8.76,4.11-13.23c0.93-4.52,1.01-9.2,1.57-14.86
	c62.2,19.17,106.23,57.83,127.75,119.16C434.12,228.8,423.4,287.65,385.02,341.54z"/>
<path class="st1" d="M124.08,341.54c-12.95,0-25.04,0-38.02,0c-37.88-53.46-48.85-111.79-27.39-174.32
	c21.33-62.16,65.64-101.24,128.31-120.56c0.47,5.33,0.5,9.98,1.39,14.47c0.9,4.54,2.65,8.9,4.14,13.7
	c-56.3,18.41-95.05,55.15-110.18,113.21C67.2,246.12,82.93,297.11,124.08,341.54z"/>
<path class="st0" d="M280.38,51.87c-0.19,25.59-20.03,45.34-45.35,45.15c-24.62-0.18-44.39-20.38-44.29-45.24
	c0.11-24.63,20.38-44.84,44.89-44.75C260.31,7.12,280.56,27.41,280.38,51.87z M243.78,45.36c1.51-3.51,2.93-6.45,4.05-9.5
	c1.28-3.46,3.3-5.19,7.17-4.23c1.04,0.26,2.25-0.15,4.15-0.32c-1.08-1.27-1.39-1.93-1.91-2.19c-5.55-2.81-10.82-0.05-12.9,7.21
	c-1.32,4.62-3.53,6.95-8.68,7c-5.14,0.05-7.7-2.12-8.8-6.83c-0.33-1.44-0.86-2.89-1.59-4.16c-2.76-4.82-8.19-5.54-12.88-1.25
	c1.37,0.31,2.45,0.92,3.27,0.67c4.36-1.38,6.48,0.61,7.85,4.5c1.12,3.17,2.64,6.2,3.99,9.3c-8.9,5.03-10.87,17.11-4.27,24.92
	c5.9,6.98,16.93,7.5,23.6,1.11C254.7,64.06,253.39,53.85,243.78,45.36z"/>
<path class="st2" d="M282.09,36.89c12.41,4.21,25.42,7.16,37.12,12.84c56.33,27.32,93.08,71.45,107.82,132.38
	c13.34,55.14,3.71,107-27.18,154.74c-0.99,1.53-2.11,2.96-3.3,4.62c-2.32,0-4.56,0-7.33,0c37.67-55.12,47.98-114.42,25.62-177.26
	C392.5,101.48,347.15,62.13,283.07,43.03c-0.37-1.64-0.85-3.71-1.32-5.78L282.09,36.89z"/>
<path class="st3" d="M152.52,395.36c14.2,0,28.4,0,43.04,0c0.29,0.55,0.79,1.48,1.5,2.8c1.03-1.14,1.85-2.05,2.81-3.11
	c24.49,0,49.13,0,74.15,0c0.67,0.72,1.53,1.64,2.54,2.73c0.81-1,1.51-1.85,2.12-2.61c13.42,0,26.69,0,39.96,0
	c-25.94,13.73-53.57,20.13-82.92,20.17C206.25,415.39,178.54,408.78,152.52,395.36z"/>
<path class="st0" d="M429.26,341.34c-1.16-11.01,3.69-23.91-11.63-28.74c3.54-9.51,6.94-18.62,10.5-28.18c10.92,0,22.13,0,34.1,0
	c-4.33,9.38-8.54,18.49-12.89,27.9c4.22,9.43,8.46,18.92,12.99,29.02C450.98,341.34,440.33,341.34,429.26,341.34z"/>
<path class="st0" d="M53.62,312.56c-15.08,4.59-11.03,17.48-11.78,28.77c-10.87,0-21.55,0-32.93,0c4.47-9.63,8.76-18.89,12.95-27.92
	c-4.4-9.78-8.61-19.14-13.06-29.04c11.74,0,22.8,0,34.16,0C46.42,293.52,49.93,302.8,53.62,312.56z"/>
<path class="st1" d="M338.69,395.31c-56.47,38.26-144.7,40.96-206.46-0.02c5.63-0.54,10.39-0.83,15.25,1.73
	c27.75,14.66,57.44,21.76,88.76,21.66c29.75-0.09,58.08-6.61,84.56-20.34C326.38,395.45,331.9,394.14,338.69,395.31z"/>
<path class="st1" d="M55.31,316.08c4.8,8.29,9.43,16.29,14.76,25.5c-6.39-0.3-12.13,0.04-17.61-1.02c-4.96-0.96-7.96-7.6-7.39-13.85
	C45.58,321.03,49.29,317.09,55.31,316.08z"/>
<path class="st1" d="M401.53,340.9c5.04-8.75,9.58-16.64,14.11-24.49c5.53,0.12,9.54,3.84,10.28,9.43c0.94,7.1-2.29,14.04-7.88,14.9
	C412.93,341.52,407.6,340.9,401.53,340.9z"/>
<path class="st2" d="M281.74,37.24c-0.09-0.13-0.18-0.26-0.26-0.38c0.2,0.01,0.41,0.02,0.61,0.04L281.74,37.24z"/>
<path class="st1" d="M188.93,36.91c0.1-0.11,0.21-0.21,0.31-0.32c0.09,0.09,0.26,0.2,0.24,0.26c-0.04,0.13-0.17,0.24-0.26,0.36
	C189.22,37.2,188.93,36.91,188.93,36.91z"/>
<path class="st4" d="M172.68,232.58c-6.03-0.55-12.04-1.43-18.08-1.59c-9.79-0.25-19.32-1.09-27.17-7.79
	c-7.49-6.39-12.37-13.41-11-24.46c1.28-10.36,1.67-20.83,8.76-28.97c5.86-6.74,12.75-12.61,19.46-18.56
	c4.69-4.16,9.07-8.31,10.03-14.9c0.05-0.36,0.7-0.63,2.13-1.83c0,5.16,0.78,9.62-0.17,13.67c-1.71,7.37-4.45,14.49-6.76,21.72
	c-1.35,4.23-2.77,8.44-4.01,12.7c-2.79,9.56,3.04,13.56,11.98,14.42c13.03,1.25,25.85-0.69,38.49-3.61
	c6.42-1.48,12.76-3.42,18.97-5.65c14.4-5.16,28.47-4.51,42.75,0.8c17.89,6.66,36.51,9.9,55.62,8.36
	c11.84-0.95,13.96-7.21,11.62-14.64c-1.59-5.03-3.19-10.09-5.29-14.91c-3.91-8.96-6.13-18.21-5.97-27.99
	c0.02-1.14,0.2-2.28,0.39-3.41c0.04-0.25,0.46-0.44,0.78-0.73c0.38,0.23,1.08,0.43,1.13,0.72c1.41,9.15,8.84,13.58,14.83,19.2
	c5.44,5.1,11.13,10.09,15.72,15.91c8.5,10.78,9.23,24.26,7.55,36.69c-1.45,10.75-10.57,17.95-21.27,21.04
	c-5.64,1.63-11.8,1.5-17.73,2.13c-5.69,0.61-11.39,1.18-17.08,1.77c0.06,0.59,0.11,1.19,0.17,1.78c6.36-0.63,12.72-1.35,19.09-1.85
	c3.13-0.25,6.36-0.54,9.41-0.02c9.79,1.67,13.88,9.22,9.88,18.43c-1.68,3.88-4.32,7.35-6.36,10.74
	c-14.91-2.24-28.63-11.02-43.33-2.95c-0.42,6.46-1.32,12.46-1.04,18.4c0.28,6.08-1.59,10.85-5.39,15.42
	c-4.78,5.75-9.33,11.72-13.53,17.91c-2.92,4.31-5.45,8.98-7.5,13.77c-3.65,8.53-18.03,16.53-27.46,14.32
	c-10.45-2.45-19.36-7.01-22.18-18.76c-0.44-1.83-1.8-3.51-2.97-5.08c-6.36-8.54-12.93-16.92-19.1-25.6
	c-1.61-2.27-2.67-5.36-2.82-8.14c-0.39-7.12-0.13-14.27-0.13-20.81c-7.38-6.03-14.67-5.27-21.85-3.84
	c-7.27,1.45-14.42,3.51-21.98,5.4c-4.39-5.17-8.61-10.41-8.26-17.88c0.27-5.73,3.43-10.28,9.06-10.76
	c6.54-0.56,13.18,0.07,19.78,0.34c3.61,0.15,7.21,0.62,10.81,0.94C172.66,233.81,172.67,233.19,172.68,232.58z M124.94,216
	c0.1,0.53,0.2,1.07,0.44,2.3c0.43-1.24,0.61-1.79,0.8-2.34c0.54,0.34,1.07,0.68,1.61,1.03c1.92,2.33,3.4,5.36,5.83,6.84
	c6.75,4.12,14.49,4.23,22.17,4.19c9.94-0.05,19.51,1.36,28.18,7.97c0-5.14,0.38-9.82-0.11-14.4c-0.5-4.72-1.36-9.52-2.94-13.98
	c-1.9-5.36-6.13-7.99-12.08-7.58c-2.98,0.2-6.04,0.35-8.96-0.11c-4.04-0.63-8.54-0.98-11.8-3.08c-3.07-1.98-4.78-6.07-7.18-9.35
	c-3.19,3.99,1.75,7.24,2.8,11c-0.43,0.23-0.86,0.45-1.29,0.68c-1.61-2.4-3.22-4.8-4.97-7.41c-0.52,0.36-1.18,0.81-1.83,1.26
	c0.31-1.3,0.28-2.82,0.98-3.87c1.92-2.88,4.7-5.31,6.13-8.39c2.98-6.42,5.46-13.09,7.83-19.76c1.29-3.63,1.95-7.48,2.9-11.23
	c-0.3-0.06-0.59-0.11-0.89-0.17c-1.17,2.92-2.34,5.84-3.51,8.75c-0.4-0.12-0.8-0.25-1.2-0.37c0.18-1.2,0.36-2.4,0.53-3.6
	c0.24-0.66,0.48-1.33,1.14-3.13c-1.35,1.11-1.76,1.45-2.17,1.78c-6.07,5.42-12.42,10.56-18.15,16.33
	c-9.49,9.55-9.37,22.2-10.15,34.45c-0.33,5.15,2.03,9.11,5.94,12.26L124.94,216z M175.85,243.04c-1.29-0.57-2.71-0.97-3.86-1.75
	c-8.86-6.05-18.73-7.09-28.94-5.44c-5.21,0.84-7.18,3.85-7.14,9.12c0.04,5.52,3.14,9.52,6.45,13.43c6.99-1.69,13.68-3.48,20.45-4.88
	c7-1.45,14.02-1.47,21.19,1.7c-1.2-2.79-2.13-4.93-3.05-7.07c0.96,0.18,1.92,0.36,2.93,0.54c0.34-4.51,0.51-8.94-4.36-11.81
	c-2.69,0.13-5.55,0.28-9.16,0.46c1.57,1.26,2.64,1.95,3.49,2.85C174.65,241.03,175.2,242.08,175.85,243.04z M329.59,197.86
	c-0.37-0.47-0.73-0.95-1.1-1.42c3.26-5.69,3.32-6.26,0.67-9.43c-0.79,7.52-5.32,11.32-12.32,12.22c-4.58,0.59-9.24,0.86-13.86,0.84
	c-7.28-0.04-11.47,2.64-13.83,9.56c-2.83,8.32-2.02,16.74-1.07,24.52c5.39-1.77,10.4-4.01,15.64-4.99
	c5.49-1.03,11.21-0.94,16.83-1.17c6.55-0.27,12.96-1.19,18.46-4.96c1.72-1.18,3.38-3.33,3.86-5.32c2.58-10.75-2.15-19.02-9.16-26.22
	C332.24,193.76,330.92,195.81,329.59,197.86z M204.18,299.99c1.65,0.41,3.31,0.83,4.39,1.1c2.02-4.61,4.04-9.22,6.44-14.71
	c-0.05-0.14-0.58-1.53-1.53-4.04c2.19,1.56,3.34,2.38,4.49,3.2c0.34-0.29,0.69-0.58,1.03-0.87c-1.26-1.81-2.52-3.62-3.77-5.43
	c0.21-0.26,0.43-0.53,0.64-0.79c1.84,1.44,3.69,2.89,6.6,5.17c-0.89-2.66-1.37-4.12-2.15-6.44c1.93,1.19,3.06,1.89,4.15,2.56
	c6.33-8.19,6.42-18.67,0.35-26.42c-5.03-6.42-11.67-10.73-18.89-14.31c-8.67-4.31-15.74-9.98-16.61-20.63
	c-0.01-0.15-0.54-0.25-1.68-0.75c-2.53,20-0.24,39.65,0.21,59.1c1.58,1.94,3,3.57,4.23,5.33c0.22,0.31-0.36,1.19-0.57,1.8
	c-1.03-0.83-2.05-1.67-3.3-2.68c0.19,4.25,12.43,21.87,20.96,30.63C209.76,307.3,209.76,307.3,204.18,299.99z M253.57,328.91
	c1.35-2.86,3.48-5.92,4.23-9.29c0.96-4.33,0.74-8.92,1.18-13.38c0.84-8.64-2.46-15.4-9.6-20.01c-13.27-8.58-14.51-28.76-0.63-39.72
	c6.33-5,13.42-9.13,20.44-13.18c13.27-7.66,10.95-24.39,3.06-32.02c-20.12-19.45-54.76-19.02-74.25,1.09
	c-8.37,8.64-7.34,22.53,2.37,29.68c2.79,2.05,6.04,3.47,8.95,5.38c4.7,3.1,9.58,6.03,13.88,9.63c12.06,10.12,12.44,29.77-1.35,39.14
	c-4.94,3.36-9.21,7.54-9.28,13.98c-0.07,6.78,0.15,13.63,1.09,20.32c0.44,3.12,2.88,5.96,4.12,8.38
	C230.22,328.91,241.37,328.91,253.57,328.91z M262.09,312.32c6.62-8.79,12.7-16.61,18.44-24.68c1.42-1.99,2.3-4.73,2.44-7.18
	c0.71-11.78,1.23-23.57,1.54-35.37c0.24-9.21,1.43-18.53-2-27.66c-4.54,12.69-5.19,13.92-10.92,17.71c-3.18,2.1-6.75,3.61-9.84,5.81
	c-4.97,3.55-10.19,6.96-14.4,11.31c-7.49,7.72-7.35,19.76-0.46,27.46c1.08-0.68,2.16-1.36,4.03-2.54c-0.8,2.4-1.26,3.77-1.72,5.13
	c0.39,0.31,0.78,0.62,1.16,0.93c1.92-2.32,3.85-4.65,5.77-6.97c0.42,0.37,0.83,0.75,1.25,1.12c-1.79,2.41-3.59,4.82-5.38,7.24
	c0.34,0.3,0.67,0.59,1.01,0.89c1.26-0.75,2.53-1.5,4.83-2.87c-1.04,2.42-1.58,3.67-2.04,4.74
	C261.34,294.96,261.34,294.96,262.09,312.32z M318.18,148.52c3.05,14.3,6.72,28.54,16.21,40.15c6.6,8.08,12.77,15.97,11.92,27.6
	c2.41-3.13,5.24-6.44,5.45-9.91c0.39-6.58-0.13-13.35-1.31-19.86c-2.99-16.51-16.39-24.79-28.26-34.29
	c1.61,4.9,3.66,9.54,5.76,14.15c4.23,9.29,4.65,11.03,3.43,14.48C326.98,170.07,322.58,159.29,318.18,148.52z M329.4,258.5
	c1.68-2.94,3.38-5.41,4.58-8.09c3.74-8.36,0.03-14.69-9.11-15.25c-3.6-0.22-7.25,0.51-10.88,0.78c-12.62,0.93-20.4,8.79-26.87,18.82
	C301.68,248.99,315.06,255.74,329.4,258.5z M222.32,331.04c8.86,6.59,19.07,6.43,26.11,0C239.9,331.04,231.51,331.04,222.32,331.04z
	 M291.59,236.87c-4.76,3.18-4.66,7.53-4.21,12.14c4.38-3.96,8.49-7.67,12.93-11.68C297.12,237.16,294.24,237.01,291.59,236.87z
	 M185.67,215.26c2.68-4.46,5.26-8.77,8.1-13.49c-4.15,0.77-7.96,1.48-11.65,2.17C183.37,207.94,184.48,211.46,185.67,215.26z
	 M277.33,202.04c1.72,2.58,3.25,4.69,4.58,6.94c1.28,2.16,2.35,4.45,3.52,6.7c1.2-3.99,2.31-7.69,3.52-11.73
	c-1.86-0.35-3.61-0.72-5.36-1.01C281.73,202.62,279.86,202.4,277.33,202.04z M270.86,195.84c5.51,4.99,19.42,7.05,21.83,3.72
	C285.68,198.37,278.72,197.18,270.86,195.84z M178.04,199.65c3.59,3.25,18,0.7,21.82-3.72
	C192.58,197.18,185.59,198.37,178.04,199.65z"/>
<path class="st5" d="M386.89,368.27c-2.55,2.46-4.67,4.5-7.13,6.87c-2.26-2.08-4.52-4.16-7.17-6.59c2.49-2.62,4.7-4.95,7.15-7.53
	C382.16,363.48,384.33,365.67,386.89,368.27z"/>
<path class="st5" d="M352.89,367.72c2.26-1.76,4.72-3.67,7.68-5.98c1.53,1.69,3.67,4.06,5.98,6.6c-2.19,2.2-4.35,4.37-6.96,6.99
	C357.39,372.84,355.37,370.55,352.89,367.72z"/>
<path class="st6" d="M219.48,358.28c0,3.6-0.2,7.21,0.06,10.79c0.23,3.12,1.21,6.14,5.27,5.82c3.68-0.29,4.34-3.05,4.35-6.11
	c0.01-3.54,0-7.09,1-10.61c0.74,5.12,2.43,10.39-0.37,15.24c-2.43,4.22-10.19,3.58-11.36-1.03c-1.15-4.55-0.81-9.48-1.13-14.24
	C218.02,358.19,218.75,358.24,219.48,358.28z"/>
<path class="st5" d="M71.05,375.6c-2.63-2.69-4.7-4.8-7.1-7.26c2.6-2.26,5.04-4.39,7.47-6.5c2.04,2.06,4.2,4.25,6.64,6.71
	C75.86,370.76,73.7,372.94,71.05,375.6z"/>
<path class="st5" d="M393.39,368.18c2.16-2.19,4.34-4.4,6.6-6.7c2.29,2.4,4.4,4.62,6.68,7.01c-2.04,2.05-4.23,4.23-6.54,6.55
	C397.8,372.68,395.65,370.48,393.39,368.18z"/>
<path class="st5" d="M117.74,369.08c-1.75,1.7-3.86,3.74-6.67,6.47c-2-2.71-3.89-5.28-5.97-8.1c1.55-1.6,3.67-3.81,6.27-6.5
	C113.54,363.71,115.42,366.12,117.74,369.08z"/>
<path class="st5" d="M91.26,360.73c2.89,2.87,4.86,4.82,7.26,7.22c-2.44,2.56-4.64,4.85-7.52,7.86c-2.27-2.66-4.28-5.01-6.7-7.85
	C86.47,365.71,88.68,363.41,91.26,360.73z"/>
<path class="st6" d="M199.3,371.18c-1.06,1.93-1.93,3.52-2.81,5.11c-0.44-0.23-0.89-0.46-1.33-0.69c2.7-5.96,5.39-11.93,8.09-17.89
	c0.51-0.04,1.01-0.07,1.52-0.11c2.62,5.98,5.25,11.96,7.87,17.94c-0.41,0.24-0.83,0.49-1.24,0.73c-1-1.64-2.01-3.27-3.13-5.09
	C205.48,371.18,202.5,371.18,199.3,371.18z M203.93,360.25c-1.63,3.88-2.76,6.57-4.02,9.55c2.81,0,5.21,0,7.99,0
	C206.68,366.83,205.56,364.15,203.93,360.25z"/>
<path class="st6" d="M285.89,370.86c-3.42-4-12.12-2.35-8.82-10.35c1.35-3.27,5.77-3.4,9.52-0.16c-1.51-0.42-3.07-1.29-4.52-1.14
	c-1.41,0.15-2.71,1.35-4.06,2.08c-0.13,0.56-0.26,1.13-0.38,1.69c2.04,1.13,4.24,2.05,6.08,3.45c1.57,1.2,3.54,2.79,3.84,4.48
	c0.26,1.43-1.61,3.25-3.5,4.39C284.68,373.76,285.32,372.23,285.89,370.86z"/>
<path class="st6" d="M240.69,367.75c-0.17,2.45-0.37,5.3-0.57,8.15c-0.38-0.01-0.76-0.02-1.14-0.02c0-5.82,0-11.65,0-17.71
	c2.25,0,4.68,0,7.1,0c0.03,0.2,0.07,0.41,0.1,0.61c-1.73,0.18-3.46,0.35-5.46,0.56c0,2.02,0,3.95,0,6.32
	c2.05,0.18,4.24,0.37,6.98,0.61C245.18,366.79,243.11,367.23,240.69,367.75z"/>
<path class="st6" d="M266.61,374.7c0.57-5.35,1.16-10.97,1.78-16.83C271.6,363.33,270.1,372.45,266.61,374.7z"/>
<path class="st6" d="M186.24,375.84c0-5.37,0-10.73,0-16.44c-2.09-0.22-3.8-0.4-5.51-0.58c0.01-0.18,0.01-0.35,0.02-0.53
	c4.21,0,8.42,0,12.63,0c0.02,0.14,0.04,0.27,0.06,0.41c-1.66,0.19-3.32,0.38-5.62,0.64c0,5.46,0,10.97,0,16.47
	C187.3,375.83,186.77,375.84,186.24,375.84z"/>
<path class="st6" d="M257.36,358.09c0.66,5.73,1.33,11.46,1.93,16.66C255.72,373.66,254.29,367.48,257.36,358.09z"/>
<path class="st2" d="M253.57,328.91c-12.2,0-23.35,0-35.79,0c-1.25-2.42-3.69-5.26-4.12-8.38c-0.94-6.7-1.16-13.54-1.09-20.32
	c0.07-6.43,4.33-10.62,9.28-13.98c13.79-9.37,13.41-29.02,1.35-39.14c-4.3-3.61-9.18-6.53-13.88-9.63c-2.9-1.91-6.16-3.33-8.95-5.38
	c-9.71-7.15-10.74-21.04-2.37-29.68c19.49-20.12,54.13-20.54,74.25-1.09c7.89,7.63,10.21,24.36-3.06,32.02
	c-7.02,4.05-14.1,8.18-20.44,13.18c-13.88,10.96-12.64,31.14,0.63,39.72c7.14,4.62,10.44,11.38,9.6,20.01
	c-0.44,4.46-0.21,9.05-1.18,13.38C257.05,322.99,254.92,326.05,253.57,328.91z M216.08,312.77c4.44-0.59,7.69-1.02,10.94-1.45
	c7.41,2.12,9.31,2.12,17.53-1.21c2.82,2.93,6.07,3.94,9.57,1.1c2.66-2.16,2.5-6.06-0.17-10.13c-5.96,3.25-11.94,6.51-18.36,10.01
	c-6.55-3.57-12.53-6.83-19.51-10.63C216.08,304.4,216.08,307.7,216.08,312.77z"/>
<path class="st2" d="M262.09,312.32c-0.75-17.36-0.75-17.36-6.3-24.93c0.46-1.07,1-2.32,2.04-4.74c-2.3,1.36-3.56,2.12-4.83,2.87
	c-0.34-0.3-0.67-0.59-1.01-0.89c1.79-2.41,3.59-4.82,5.38-7.24c-0.42-0.37-0.83-0.75-1.25-1.12c-1.92,2.32-3.85,4.65-5.77,6.97
	c-0.39-0.31-0.78-0.62-1.16-0.93c0.46-1.37,0.92-2.73,1.72-5.13c-1.86,1.17-2.95,1.86-4.03,2.54c-6.9-7.7-7.04-19.73,0.45-27.46
	c4.21-4.35,9.43-7.76,14.4-11.31c3.09-2.2,6.67-3.71,9.84-5.81c5.73-3.79,6.38-5.02,10.92-17.71c3.43,9.13,2.24,18.45,2,27.66
	c-0.31,11.8-0.83,23.59-1.54,35.37c-0.15,2.45-1.03,5.2-2.44,7.18C274.79,295.71,268.71,303.53,262.09,312.32z M260.38,262.69
	c12.24-1.58,19.16-8.77,15.48-19.15C262.89,241.52,258.47,246.89,260.38,262.69z"/>
<path class="st2" d="M191.52,283.87c0.21-0.61,0.79-1.49,0.57-1.8c-1.23-1.76-2.65-3.39-4.23-5.33c-0.45-19.45-2.74-39.1-0.21-59.1
	c1.14,0.5,1.67,0.61,1.68,0.75c0.87,10.64,7.94,16.32,16.61,20.63c7.22,3.58,13.86,7.89,18.89,14.31
	c6.07,7.75,5.98,18.23-0.35,26.42c-1.09-0.67-2.22-1.37-4.15-2.56c0.78,2.33,1.26,3.78,2.15,6.44c-2.91-2.28-4.76-3.72-6.6-5.17
	c-0.21,0.26-0.43,0.53-0.64,0.79c1.26,1.81,2.52,3.62,3.77,5.43c-0.34,0.29-0.69,0.58-1.03,0.87c-1.15-0.82-2.3-1.64-4.49-3.2
	c0.95,2.52,1.47,3.91,1.53,4.04c-2.41,5.49-4.42,10.1-6.44,14.71c-1.08-0.27-2.73-0.68-4.39-1.1c0.13-0.05,0.06-0.18-0.19-0.41
	c1.7-1.74,1.22-2.62-1.93-3.6l-0.01-0.02c-0.39-0.97-0.78-1.95-1.17-2.92c-0.61-0.72-1.22-1.44-1.83-2.16
	c-1.36-0.98-2.71-1.96-4.07-2.94l0.07,0.08c-0.3-1.03-0.6-2.06-0.9-3.09c-0.9-0.33-1.79-0.66-2.69-0.99L191.52,283.87z
	 M195.34,243.37c-3.79,9.76,3.25,18.61,15.39,18.86C212.95,247.42,208.84,242.25,195.34,243.37z"/>
<path class="st2" d="M135.62,193.01c0.65-0.45,1.3-0.9,1.83-1.26c1.75,2.61,3.36,5.01,4.97,7.41c0.43-0.23,0.86-0.45,1.29-0.68
	c-1.05-3.77-5.99-7.01-2.8-11c2.4,3.28,4.11,7.37,7.18,9.35c3.26,2.1,7.76,2.45,11.8,3.08c2.92,0.46,5.98,0.31,8.96,0.11
	c5.94-0.41,10.18,2.22,12.08,7.58c1.58,4.46,2.44,9.26,2.94,13.98c0.48,4.59,0.11,9.27,0.11,14.4c-8.67-6.62-18.24-8.02-28.18-7.97
	c-7.68,0.04-15.42-0.07-22.17-4.19c-2.43-1.48-3.91-4.52-5.83-6.84c0-2.99,0-5.99,0-8.98c0.08-1.33,0.16-2.66,0.24-3.99l0.01-0.01
	c1.04-1.67,2.09-3.34,3.13-5.02c-0.06-0.86-0.11-1.71-0.17-2.57c0,0,0.06,0.13,0.06,0.13l-0.12,0.18c1.81,0.64,1.93,0.54,4.12-3.22
	C135.34,193.27,135.52,193.11,135.62,193.01z M143.58,198c2.66,6.12,18.68,9.34,28.03,5.72C162.07,202.76,152.05,204.26,143.58,198z
	 M162.73,216.24c0.06-0.65,0.12-1.3,0.18-1.95c-5.25-0.73-10.5-1.45-15.76-2.18c-0.08,0.61-0.17,1.22-0.25,1.83
	C152.17,214.71,157.45,215.47,162.73,216.24z"/>
<path class="st2" d="M329.59,197.86c1.33-2.05,2.65-4.1,4.13-6.38c7.01,7.19,11.74,15.47,9.16,26.22c-0.48,1.99-2.14,4.14-3.86,5.32
	c-5.5,3.78-11.91,4.69-18.46,4.96c-5.62,0.23-11.34,0.14-16.83,1.17c-5.24,0.98-10.25,3.22-15.64,4.99
	c-0.95-7.78-1.76-16.2,1.07-24.52c2.35-6.92,6.55-9.6,13.83-9.56c4.62,0.03,9.28-0.24,13.86-0.84c7-0.9,11.53-4.7,12.32-12.22
	c2.65,3.17,2.6,3.74-0.67,9.43c-0.69,0.63-1.37,1.27-2.06,1.9c-7.94,5.91-17.65,4.3-26.63,5.83c9.84,0.98,19.68,2.12,28.12-4.58
	C328.48,199.02,329.03,198.44,329.59,197.86z M324.26,214.01c-0.12-0.67-0.23-1.33-0.35-2c-5.28,0.8-10.56,1.61-15.84,2.41
	c0.09,0.6,0.18,1.2,0.28,1.8C313.65,215.49,318.95,214.75,324.26,214.01z"/>
<path class="st7" d="M135.62,193.01c-0.1,0.1-0.28,0.26-0.55,0.49c-1.03,0.47-2.07,0.93-3.1,1.4c-0.3,0.55-0.6,1.1-0.9,1.65
	l-0.06-0.13c-0.59,0.73-1.17,1.46-1.76,2.19c-0.4,1.8-0.81,3.6-1.21,5.4c0,0-0.01,0.01-0.01,0.01c-0.66,1.66-1.31,3.33-1.97,4.99
	c-0.35,2.35-0.7,4.7-1.05,7.06c-3.92-3.15-6.27-7.11-5.94-12.26c0.79-12.25,0.66-24.9,10.15-34.45
	c5.73-5.76,12.08-10.91,18.15-16.33c0.34,0.45,0.69,0.9,1.03,1.35c-0.18,1.2-0.36,2.4-0.53,3.6c0.4,0.12,0.8,0.25,1.2,0.37
	c1.17-2.92,2.34-5.84,3.51-8.75c0.3,0.06,0.59,0.11,0.89,0.17c-0.95,3.75-1.61,7.6-2.9,11.23c-2.38,6.67-4.86,13.34-7.83,19.76
	c-1.43,3.08-4.21,5.5-6.13,8.39C135.9,190.19,135.92,191.71,135.62,193.01z M138.38,180.41c0.56,0.18,1.13,0.36,1.69,0.53
	c1.62-4.78,3.24-9.56,4.85-14.34c-0.6-0.19-1.21-0.39-1.81-0.58C141.53,170.82,139.95,175.62,138.38,180.41z M143.37,166.29
	c0.5,0.32,0.99,0.65,1.49,0.97c0.87-1.93,1.73-3.86,2.6-5.8c-0.49-0.23-0.97-0.45-1.46-0.68
	C145.12,162.62,144.25,164.45,143.37,166.29z M147.67,160c-0.11,0-0.22,0-0.33,0c0,0.33,0,0.67,0,1c0.11,0,0.22,0,0.33,0
	C147.67,160.67,147.67,160.33,147.67,160z"/>
<path class="st2" d="M318.18,148.52c4.4,10.77,8.8,21.55,13.19,32.32c1.22-3.45,0.8-5.2-3.43-14.48c-2.1-4.61-4.15-9.25-5.76-14.15
	c11.87,9.51,25.27,17.79,28.26,34.29c1.18,6.5,1.7,13.28,1.31,19.86c-0.21,3.47-3.04,6.77-5.45,9.91
	c0.85-11.63-5.32-19.52-11.92-27.6C324.91,177.06,321.24,162.82,318.18,148.52z"/>
<path class="st2" d="M180.96,248.15c0.92,2.14,1.85,4.28,3.05,7.07c-7.17-3.16-14.19-3.15-21.19-1.7
	c-6.77,1.41-13.46,3.2-20.45,4.88c-3.31-3.92-6.41-7.91-6.45-13.43c-0.04-5.27,1.93-8.28,7.14-9.12c10.21-1.65,20.08-0.6,28.94,5.44
	c1.15,0.78,2.56,1.18,3.86,1.75l0.11,0c1.67,1.67,3.34,3.34,5,5L180.96,248.15z"/>
<path class="st2" d="M329.4,258.5c-14.34-2.76-27.72-9.51-42.28-3.75c6.47-10.03,14.25-17.89,26.87-18.82
	c3.63-0.27,7.28-1,10.88-0.78c9.13,0.56,12.84,6.89,9.11,15.25C332.78,253.1,331.08,255.56,329.4,258.5z"/>
<path class="st8" d="M191.52,283.87c0,0-0.06,0.08-0.06,0.08c0.5,0.71,1,1.42,1.5,2.13c0.7,0.65,1.4,1.29,2.1,1.94l-0.07-0.08
	c0.97,1.36,1.93,2.72,2.9,4.08c0.37,0.44,0.73,0.88,1.1,1.32c1.02,0.87,2.05,1.75,3.07,2.62c0,0,0.01,0.02,0.01,0.02
	c0.64,1.2,1.29,2.4,1.93,3.6c0.25,0.23,0.31,0.36,0.19,0.41c5.58,7.31,5.58,7.31,4.99,11.82c-8.53-8.76-20.77-26.38-20.96-30.63
	C189.47,282.2,190.5,283.03,191.52,283.87z"/>
<path class="st2" d="M222.32,331.04c9.19,0,17.58,0,26.11,0C241.39,337.47,231.18,337.62,222.32,331.04z"/>
<path class="st9" d="M175.85,243.04c-0.66-0.96-1.21-2.02-1.99-2.85c-0.85-0.9-1.93-1.6-3.49-2.85c3.61-0.18,6.47-0.32,9.16-0.46
	c4.87,2.87,4.7,7.3,4.36,11.81c-1.01-0.19-1.97-0.36-2.93-0.54c0,0,0-0.11,0-0.11c-1.67-1.67-3.34-3.34-5-5L175.85,243.04z"/>
<path class="st9" d="M291.59,236.87c2.65,0.14,5.52,0.29,8.72,0.46c-4.44,4.01-8.54,7.72-12.93,11.68
	C286.93,244.4,286.83,240.05,291.59,236.87z"/>
<path class="st9" d="M185.67,215.26c-1.19-3.8-2.3-7.32-3.56-11.31c3.69-0.69,7.51-1.4,11.65-2.17
	C190.93,206.49,188.35,210.8,185.67,215.26z"/>
<path class="st7" d="M277.33,202.04c2.52,0.35,4.4,0.58,6.26,0.89c1.76,0.29,3.5,0.66,5.36,1.01c-1.21,4.04-2.32,7.74-3.52,11.73
	c-1.17-2.24-2.24-4.53-3.52-6.7C280.59,206.74,279.05,204.62,277.33,202.04z"/>
<path class="st10" d="M270.86,195.84c7.87,1.34,14.82,2.53,21.83,3.72C290.28,202.9,276.37,200.83,270.86,195.84z"/>
<path class="st8" d="M178.04,199.65c7.55-1.29,14.53-2.48,21.82-3.72C196.04,200.36,181.63,202.9,178.04,199.65z"/>
<path class="st6" d="M125,216.07c0.35-2.35,0.7-4.7,1.05-7.06c0.58-0.33,1.15-0.67,1.73-1c0,2.99,0,5.99,0,8.98
	c-0.54-0.34-1.07-0.68-1.61-1.03c-0.41,0.01-0.83,0.02-1.24,0.04C124.94,216,125,216.07,125,216.07z"/>
<path class="st7" d="M147.36,153.03c0.41-0.34,0.82-0.67,2.17-1.78c-0.65,1.8-0.9,2.47-1.14,3.13
	C148.05,153.93,147.71,153.48,147.36,153.03z"/>
<path class="st7" d="M124.94,216c0.41-0.01,0.83-0.02,1.24-0.04c-0.19,0.55-0.38,1.1-0.8,2.34
	C125.14,217.07,125.04,216.53,124.94,216z"/>
<path class="st8" d="M203.93,360.25c1.63,3.91,2.74,6.59,3.98,9.55c-2.78,0-5.18,0-7.99,0C201.17,366.81,202.3,364.12,203.93,360.25
	z"/>
<path class="st2" d="M235.68,46.99c7.38,0.04,13.13,5.65,13.12,12.78c-0.01,7.07-6.46,13.34-13.54,13.19
	c-7.06-0.15-12.72-6.14-12.61-13.36C222.75,52.17,228.14,46.95,235.68,46.99z"/>
<path class="st4" d="M216.08,312.77c0-5.07,0-8.37,0-12.31c6.98,3.8,12.96,7.06,19.51,10.63c6.42-3.5,12.4-6.76,18.36-10.01
	c2.68,4.07,2.84,7.97,0.17,10.13c-3.5,2.84-6.75,1.83-9.57-1.1c-8.22,3.33-10.12,3.34-17.53,1.21
	C223.77,311.75,220.52,312.18,216.08,312.77z"/>
<path class="st6" d="M260.38,262.69c-1.92-15.79,2.5-21.16,15.48-19.15C279.55,253.91,272.63,261.11,260.38,262.69z M272.72,252.75
	c-3.07,3.1-6.6,3.13-10.49,1.35c0,2.1,0,3.97,0,6.4c4.46-1.9,9.09-2.4,11.18-7.12c0.21-0.68,0.43-1.36,0.64-2.04
	c-0.21-0.07-0.42-0.15-0.62-0.22C273.18,251.67,272.95,252.21,272.72,252.75z M262.94,251.37c2.17,2.19,4.63,2.62,6.98,0.72
	c2.42-1.96,2.47-4.4,0.15-6.82C266.62,245.96,263.4,246.86,262.94,251.37z"/>
<path class="st6" d="M195.34,243.37c13.5-1.12,17.61,4.05,15.39,18.86C198.6,261.98,191.56,253.13,195.34,243.37z M198.44,252.65
	c-0.3-0.69-0.6-1.37-0.9-2.06c-0.2,0.08-0.41,0.17-0.61,0.25c0.28,0.79,0.55,1.59,0.83,2.38c2.05,4.89,6.61,5.51,11.21,7.12
	c0-2.42,0-4.17,0-6.23C204.99,255.91,201.45,255.82,198.44,252.65z M201.22,244.68c-2.15,3.48-2.19,6.11,0.47,7.76
	c2.44,1.51,5.08,1.31,7.16-2.97C206.38,247.92,203.87,246.34,201.22,244.68z"/>
<path class="st4" d="M197.89,292.02c-0.97-1.36-1.93-2.72-2.9-4.08c1.36,0.98,2.71,1.96,4.07,2.94
	C198.67,291.26,198.28,291.64,197.89,292.02z"/>
<path class="st4" d="M202.06,295.96c-1.02-0.87-2.05-1.75-3.07-2.62c0.63-0.1,1.27-0.2,1.9-0.3
	C201.28,294.01,201.67,294.99,202.06,295.96z"/>
<path class="st4" d="M204,299.58c-0.64-1.2-1.29-2.4-1.93-3.6C205.22,296.96,205.69,297.84,204,299.58z"/>
<path class="st4" d="M195.06,288.02c-0.7-0.65-1.4-1.29-2.1-1.94c0.4-0.38,0.8-0.76,1.19-1.14
	C194.46,285.96,194.76,286.99,195.06,288.02z"/>
<path class="st6" d="M200.89,293.04c-0.63,0.1-1.27,0.2-1.9,0.3c-0.37-0.44-0.73-0.88-1.1-1.32c0.39-0.38,0.78-0.76,1.17-1.14
	C199.67,291.6,200.28,292.32,200.89,293.04z"/>
<path class="st6" d="M194.16,284.93c-0.4,0.38-0.8,0.76-1.19,1.14c-0.5-0.71-1-1.42-1.5-2.13
	C192.36,284.27,193.26,284.6,194.16,284.93z"/>
<path class="st4" d="M143.58,198c8.47,6.26,18.49,4.76,28.03,5.72C162.26,207.34,146.24,204.12,143.58,198z"/>
<path class="st6" d="M162.73,216.24c-5.28-0.77-10.56-1.53-15.83-2.3c0.08-0.61,0.17-1.22,0.25-1.83c5.25,0.73,10.5,1.45,15.76,2.18
	C162.85,214.94,162.79,215.59,162.73,216.24z"/>
<path class="st4" d="M127.78,208.01c-0.58,0.33-1.15,0.67-1.73,1c0.66-1.66,1.31-3.33,1.97-4.99
	C127.94,205.35,127.86,206.68,127.78,208.01z"/>
<path class="st4" d="M128.03,204.01c0.4-1.8,0.81-3.6,1.21-5.4c0.64,0.13,1.28,0.25,1.92,0.38
	C130.12,200.67,129.07,202.34,128.03,204.01z"/>
<path class="st4" d="M131.96,194.9c1.03-0.47,2.07-0.93,3.1-1.4c-2.18,3.76-2.31,3.86-4.12,3.22
	C131.29,196.12,131.62,195.51,131.96,194.9z"/>
<path class="st6" d="M131.16,199c-0.64-0.13-1.28-0.25-1.92-0.38c0.59-0.73,1.17-1.46,1.76-2.19
	C131.05,197.28,131.11,198.14,131.16,199z"/>
<path class="st6" d="M131.96,194.9c-0.34,0.61-0.68,1.22-1.02,1.83l0.12-0.18C131.36,196,131.66,195.45,131.96,194.9z"/>
<path class="st4" d="M327.92,199.6c-8.44,6.69-18.28,5.56-28.12,4.58c8.98-1.53,18.69,0.07,26.63-5.83
	C326.93,198.76,327.43,199.18,327.92,199.6z"/>
<path class="st6" d="M324.26,214.01c-5.3,0.74-10.61,1.48-15.91,2.22c-0.09-0.6-0.18-1.2-0.28-1.8c5.28-0.8,10.56-1.61,15.84-2.41
	C324.02,212.68,324.14,213.35,324.26,214.01z"/>
<path class="st4" d="M326.43,198.34c0.69-0.63,1.37-1.27,2.06-1.9c0.37,0.47,0.73,0.95,1.1,1.42c-0.56,0.58-1.11,1.16-1.67,1.74
	C327.43,199.18,326.93,198.76,326.43,198.34z"/>
<path class="st4" d="M138.38,180.41c1.58-4.79,3.15-9.59,4.73-14.38c0.6,0.19,1.21,0.39,1.81,0.58c-1.62,4.78-3.24,9.56-4.85,14.34
	C139.5,180.77,138.94,180.59,138.38,180.41z"/>
<path class="st4" d="M143.37,166.29c0.88-1.83,1.75-3.67,2.63-5.5c0.49,0.23,0.97,0.45,1.46,0.68c-0.87,1.93-1.73,3.86-2.6,5.8
	C144.36,166.93,143.87,166.61,143.37,166.29z"/>
<ellipse class="st4" cx="147.5" cy="160.5" rx="0.24" ry="0.71"/>
<path class="st4" d="M175.96,243.04c1.67,1.67,3.34,3.34,5,5C179.29,246.37,177.63,244.71,175.96,243.04z"/>
<path class="st9" d="M262.94,251.37c0.47-4.51,3.68-5.41,7.13-6.11c2.31,2.43,2.27,4.86-0.15,6.82
	C267.57,253.99,265.11,253.56,262.94,251.37z"/>
<path class="st11" d="M273.4,253.38c-2.09,4.71-6.72,5.21-11.18,7.11c0-2.43,0-4.29,0-6.4c3.89,1.78,7.43,1.75,10.49-1.35
	C272.95,252.96,273.18,253.17,273.4,253.38z"/>
<path class="st11" d="M272.72,252.75c0.23-0.54,0.47-1.08,0.7-1.63c0.21,0.07,0.42,0.15,0.62,0.22c-0.21,0.68-0.43,1.36-0.64,2.04
	C273.18,253.17,272.95,252.96,272.72,252.75z"/>
<path class="st12" d="M201.22,244.68c2.65,1.67,5.16,3.24,7.62,4.79c-2.07,4.28-4.72,4.48-7.16,2.97
	C199.03,250.79,199.07,248.16,201.22,244.68z"/>
<path class="st8" d="M198.44,252.65c3.01,3.17,6.55,3.26,10.53,1.47c0,2.06,0,3.81,0,6.23c-4.6-1.62-9.16-2.24-11.21-7.12
	C197.98,253.04,198.21,252.84,198.44,252.65z"/>
<path class="st8" d="M197.75,253.23c-0.28-0.79-0.55-1.59-0.83-2.38c0.2-0.08,0.41-0.17,0.61-0.25c0.3,0.69,0.6,1.37,0.9,2.06
	C198.21,252.84,197.98,253.04,197.75,253.23z"/>
</svg>
